<svg width="40" height="40" viewBox="0 0 40 40" fill="none" xmlns="http://www.w3.org/2000/svg">
<path fill-rule="evenodd" clip-rule="evenodd" d="M40 20C40 31.0457 31.0457 40 20 40C8.95432 40 0 31.0457 0 20C0 8.95431 8.95432 0 20 0C31.0457 0 40 8.95431 40 20ZM17.2607 19.8405L10.3717 12.9515C9.73532 12.3151 9.86148 11.2156 10.6629 10.4142C11.4643 9.61282 12.5638 9.48666 13.2001 10.1231L20.0892 17.0121L26.9688 10.1325C27.6052 9.49606 28.7047 9.62223 29.5061 10.4236C30.3075 11.225 30.4336 12.3245 29.7972 12.9609L22.9176 19.8405L30.0459 26.9688C30.6823 27.6052 30.5562 28.7047 29.7548 29.5061C28.9534 30.3075 27.8539 30.4337 27.2175 29.7973L20.0892 22.6689L12.9514 29.8067C12.3151 30.4431 11.2156 30.3169 10.4142 29.5155C9.61279 28.7141 9.48663 27.6146 10.123 26.9782L17.2607 19.8405Z" fill="#4F46E5"/>
</svg>
