<svg width="45" height="45" viewBox="0 0 45 45" fill="none" xmlns="http://www.w3.org/2000/svg">
<path fill-rule="evenodd" clip-rule="evenodd" d="M22.5 45C34.9264 45 45 34.9264 45 22.5C45 10.0736 34.9264 0 22.5 0C10.0736 0 0 10.0736 0 22.5C0 34.9264 10.0736 45 22.5 45ZM11.025 29.25C11.025 30.015 11.61 30.6 12.375 30.6H32.625C33.39 30.6 33.975 30.015 33.975 29.25C33.975 28.485 33.39 27.9 32.625 27.9H12.375C11.61 27.9 11.025 28.485 11.025 29.25ZM32.625 23.85H12.375C11.61 23.85 11.025 23.265 11.025 22.5C11.025 21.735 11.61 21.15 12.375 21.15H32.625C33.39 21.15 33.975 21.735 33.975 22.5C33.975 23.265 33.39 23.85 32.625 23.85ZM12.375 17.1H32.625C33.39 17.1 33.975 16.515 33.975 15.75C33.975 14.985 33.39 14.4 32.625 14.4H12.375C11.61 14.4 11.025 14.985 11.025 15.75C11.025 16.515 11.61 17.1 12.375 17.1Z" fill="#4F46E5"/>
</svg>
