<svg width="132" height="132" viewBox="0 0 132 132" fill="none" xmlns="http://www.w3.org/2000/svg">
<path fill-rule="evenodd" clip-rule="evenodd" d="M66 132C102.451 132 132 102.451 132 66C132 29.5492 102.451 0 66 0C29.5492 0 0 29.5492 0 66C0 102.451 29.5492 132 66 132ZM35.2546 39C36.0546 41 43.9213 44.8333 47.7546 46.5C46.9213 46.8333 42.6546 46.5 32.2546 42.5C30.088 42.8333 25.3546 44.1 23.7546 46.5C20.9213 52.8333 16.9546 68.9 23.7546 82.5C28.7546 87 41.1546 95.9 50.7546 95.5C47.5546 95.9 40.088 95.3333 36.7546 95C61.1546 115.4 85.2546 103.833 94.2546 95.5C91.4546 96.3 84.088 95.8333 80.7546 95.5C92.3546 94.7 103.255 87.5 107.255 84C114.855 70.4 110.755 53.6667 107.755 47C106.155 43.8 101.755 43 99.7546 43C93.0416 46.7295 87.163 46.8426 85.024 46.8668C87.3254 46.0408 93.8297 42.1406 97.2546 40C94.0546 33.2 81.9213 28.1667 76.2546 26.5C77.0546 36.1 74.588 40.1667 73.2546 41C75.6546 27.8 69.2546 24.1667 65.7546 24C57.3546 26.8 57.9213 36.5 59.2546 41C55.2546 36.6 55.588 29.5 56.2546 26.5C47.137 29.6561 46.6276 30.1068 46.4466 30.2669C46.3695 30.3351 46.3519 30.3507 45.7546 30.5C44.1546 30.9 38.088 36.3333 35.2546 39Z" fill="#4F46E5"/>
<path fill-rule="evenodd" clip-rule="evenodd" d="M63.2546 58C49.6546 58.4 33.9213 52.1667 27.7546 49C22.9546 61.4 25.7546 75.1667 27.7546 80.5C34.088 85.3333 48.7546 93.9 56.7546 89.5C66.7546 84 73.2546 87.5 75.7546 90C77.7546 92 84.588 90.5 87.7546 89.5C90.1546 89.9 99.4213 83.6667 103.755 80.5C108.955 67.7 105.921 54.8333 103.755 50C99.2546 55.5 80.2546 57.5 63.2546 58ZM35.7546 82L42.7546 58C48.4827 58.9165 51.2709 59.203 52.6108 59.3407C53.5172 59.4338 53.7608 59.4589 53.8034 59.5647C53.819 59.6037 53.8075 59.6535 53.7918 59.7217C53.7755 59.7921 53.7546 59.8822 53.7546 60C53.7546 61 48.2546 85.5 46.2546 86.5C44.6546 87.3 38.588 83.8333 35.7546 82ZM57.5 60L50 87H54L61.5 60H57.5Z" fill="#4F46E5"/>
</svg>
